<svg width="28" height="28" viewBox="0 0 28 28" fill="none" xmlns="http://www.w3.org/2000/svg">
<path fill-rule="evenodd" clip-rule="evenodd" d="M0 14C0 6.26801 6.26801 0 14 0C21.732 0 28 6.26801 28 14C28 21.732 21.732 28 14 28C6.26801 28 0 21.732 0 14Z" fill="#ECEFF1"/>
<path d="M7.574 7.674V4.174H6.426V7.674H7.574ZM7.574 10.026V8.85H6.426V10.026H7.574ZM7 1.276C8.064 1.276 9.04867 1.542 9.954 2.074C10.8313 2.578 11.522 3.26867 12.026 4.146C12.558 5.05133 12.824 6.036 12.824 7.1C12.824 8.164 12.558 9.14867 12.026 10.054C11.522 10.9313 10.8313 11.622 9.954 12.126C9.04867 12.658 8.064 12.924 7 12.924C5.936 12.924 4.95133 12.658 4.046 12.126C3.16867 11.6127 2.478 10.9173 1.974 10.04C1.442 9.13467 1.176 8.15467 1.176 7.1C1.176 6.04533 1.442 5.06533 1.974 4.16C2.48733 3.28267 3.18267 2.58733 4.06 2.074C4.96533 1.542 5.94533 1.276 7 1.276Z" transform="translate(7 7)" fill="#37474F"/>
</svg>
