<svg width="73" height="30" viewBox="0 0 73 30" fill="none" xmlns="http://www.w3.org/2000/svg">
<path d="M6.53762 7.5L0 3.75L6.53762 0V7.5Z" transform="translate(0 11.25)" fill="#0091EA"/>
<path d="M6.46247 7.5L-1.43328e-07 3.75L6.46247 0V7.5Z" transform="translate(6.5376 7.5)" fill="#0091EA"/>
<path d="M6.53762 7.5L-5.73311e-07 3.75L6.53762 0V7.5Z" transform="translate(13 3.75)" fill="#0091EA"/>
<path d="M6.46247 7.5L0 3.75L6.46247 0V7.5Z" transform="translate(19.5376 7.5)" fill="#0091EA"/>
<path d="M6.53762 7.5L0 3.75L6.53762 0V7.5Z" transform="translate(0 3.75)" fill="#0091EA"/>
<path d="M6.46247 7.5L-1.43328e-07 3.75L6.46247 0V7.5Z" transform="translate(6.5376)" fill="#0091EA"/>
<path d="M6.46247 7.5L-1.43328e-07 3.75L6.46247 0V7.5Z" transform="translate(6.5376 15)" fill="#0091EA"/>
<path d="M6.53762 7.5L0 3.75L6.53762 0V7.5Z" transform="translate(0 18.75)" fill="#0091EA"/>
<path d="M6.46247 7.5L-1.43328e-07 3.75L6.46247 0V7.5Z" transform="translate(6.5376 22.5)" fill="#0091EA"/>
<path d="M6.53762 7.5L-5.73311e-07 3.75L6.53762 0V7.5Z" transform="translate(13 18.75)" fill="#0091EA"/>
<path d="M6.46247 7.5L0 3.75L6.46247 0V7.5Z" transform="translate(19.5376 15)" fill="#0091EA"/>
<path d="M6.53762 7.5L-5.73311e-07 3.75L6.53762 0V7.5Z" transform="translate(13 11.25)" fill="#0091EA"/>
<path d="M6.53762 3.75L4.35841 5.025L0 7.5V0L2.17921 1.275L6.53762 3.75Z" transform="translate(0 7.5)" fill="#0091EA"/>
<path d="M-1.43328e-07 0V7.5L6.46247 3.75L-1.43328e-07 0Z" transform="translate(6.5376 3.75)" fill="#0091EA"/>
<path d="M-5.73311e-07 0V7.5L6.53762 3.75L-5.73311e-07 0Z" transform="translate(13)" fill="#0091EA"/>
<path d="M-1.43328e-07 0V7.5L6.46247 3.75L-1.43328e-07 0Z" transform="translate(6.5376 18.75)" fill="#0091EA"/>
<path d="M-5.73311e-07 0V7.5L6.53762 3.75L-5.73311e-07 0Z" transform="translate(13 22.5)" fill="#0091EA"/>
<path d="M-5.73311e-07 0V7.5L6.53762 3.75L-5.73311e-07 0Z" transform="translate(13 15)" fill="#0091EA"/>
<path d="M0 0V7.5L6.46247 3.75L0 0Z" transform="translate(19.5376 11.25)" fill="#0091EA"/>
<path d="M-1.43328e-07 0V7.5L6.46247 3.75L-1.43328e-07 0Z" transform="translate(6.5376 11.25)" fill="#0091EA"/>
<path d="M6.53762 3.75L0 7.5V0L6.53762 3.75Z" transform="translate(0 15)" fill="#0091EA"/>
<path d="M-5.73311e-07 0V7.5L6.53762 3.75L-5.73311e-07 0Z" transform="translate(13 7.5)" fill="#0091EA"/>
<path d="M0 0V7.5L6.46247 3.75L0 0Z" transform="translate(19.5376 3.75)" fill="#0091EA"/>
<path d="M0 0V7.5L6.46247 3.75L0 0Z" transform="translate(19.5376 18.75)" fill="#0091EA"/>
<path d="M13.0001 3.75L10.8209 -3.57628e-08L7.16639e-08 6.3L10.8209 25.05L21.7169 18.75L19.5377 15L13.0001 18.75L10.8209 15L17.3585 11.25L15.1793 7.5L8.64168 11.25L6.46247 7.5L13.0001 3.75Z" transform="translate(2.1792 2.475)" fill="white"/>
<path d="M4.55286 9.70078C3.187 9.70078 2.04878 9.25984 1.25203 8.37795C0.455284 7.49606 0 6.3937 0 5.07087V4.74016C0 3.41732 0.455284 2.20472 1.25203 1.32283C2.04878 0.440944 3.07318 4.20518e-07 4.32521 4.20518e-07C5.57725 4.20518e-07 6.60164 0.330709 7.28457 1.10236C7.9675 1.87402 8.30896 2.86614 8.30896 4.18897V5.40157H2.27643C2.27643 6.17323 2.50407 6.72441 2.95935 7.27559C3.41464 7.82677 3.98375 7.937 4.66668 7.937C5.23578 7.937 5.80489 7.82677 6.14636 7.71653C6.60164 7.6063 6.9431 7.38583 7.39839 7.16535L8.08132 8.59842C7.73985 8.92913 7.28457 9.1496 6.60164 9.37008C6.03253 9.59055 5.34961 9.70078 4.55286 9.70078ZM4.32521 1.65354C3.75611 1.65354 3.30082 1.87402 2.95935 2.31496C2.61789 2.75591 2.39025 3.30709 2.27643 3.85827H6.14636V3.63779C6.14636 3.08661 6.03253 2.53543 5.69107 2.20472C5.34961 1.76378 4.89432 1.65354 4.32521 1.65354Z" transform="translate(31 12.2992)" fill="white"/>
<path d="M5.80489 6.94488C5.80489 6.61417 5.69107 6.3937 5.34961 6.17323C5.00814 5.95276 4.55285 5.73228 3.75611 5.62205C2.61789 5.40157 1.70732 5.07086 1.13821 4.62992C0.569107 4.18897 0.227644 3.6378 0.227644 2.86614C0.227644 2.09449 0.569105 1.43307 1.25203 0.881889C1.93496 0.330708 2.84553 4.20518e-07 3.98375 4.20518e-07C5.12196 4.20518e-07 6.14636 0.330708 6.82928 0.881889C7.51221 1.43307 7.85368 2.09449 7.85368 2.97638H5.69107C5.69107 2.53543 5.57725 2.20472 5.23578 1.98425C4.89432 1.65354 4.55286 1.54331 3.98375 1.54331C3.41464 1.54331 3.07318 1.65354 2.73172 1.87401C2.39025 2.09449 2.27643 2.4252 2.27643 2.75591C2.27643 3.08661 2.39025 3.30708 2.61789 3.52756C2.84553 3.74803 3.41464 3.85827 4.21139 4.07874C5.46343 4.29921 6.374 4.62992 6.9431 5.07087C7.51221 5.51181 7.85368 6.06299 7.85368 6.83464C7.85368 7.71653 7.51221 8.37795 6.82928 8.92913C6.14636 9.48031 5.12196 9.70078 3.98375 9.70078C2.73171 9.70078 1.70732 9.37008 1.02439 8.81889C0.341466 8.15748 0 7.49606 0 6.72441H2.04878C2.04878 7.27559 2.27643 7.71653 2.61789 7.937C2.95936 8.15748 3.41464 8.26771 3.98375 8.26771C4.55286 8.26771 5.00814 8.15748 5.23578 7.937C5.69107 7.6063 5.80489 7.27559 5.80489 6.94488Z" transform="translate(40.6748 12.2992)" fill="white"/>
<path d="M1.73678e-06 4.74016C1.73678e-06 3.30709 0.341466 2.20472 1.13822 1.32283C1.93497 0.440944 3.07318 4.20518e-07 4.43903 4.20518e-07C5.80489 4.20518e-07 6.9431 0.440944 7.73985 1.32283C8.5366 2.20472 8.87806 3.30709 8.87806 4.74016V4.96063C8.87806 6.3937 8.5366 7.49606 7.73985 8.37795C6.9431 9.25984 5.91871 9.70078 4.43903 9.70078C3.07318 9.70078 1.93497 9.25984 1.13822 8.37795C0.341466 7.49606 1.73678e-06 6.3937 1.73678e-06 4.96063V4.74016V4.74016ZM2.16261 4.85039C2.16261 5.73228 2.39025 6.50394 2.73171 7.05512C3.07318 7.6063 3.64228 7.937 4.43903 7.937C5.23578 7.937 5.80489 7.6063 6.14635 7.05512C6.48782 6.50394 6.71546 5.73228 6.71546 4.85039V4.62992C6.71546 3.74803 6.48782 2.97638 6.14635 2.4252C5.80489 1.87401 5.23578 1.54331 4.43903 1.54331C3.64228 1.54331 3.07318 1.87401 2.73171 2.4252C2.39025 2.97638 2.16261 3.74803 2.16261 4.62992V4.85039Z" transform="translate(50.2358 12.2992)" fill="white"/>
<path d="M1.47968 13.7795V5.95275H-3.47355e-06V4.40945H1.47968V3.30709C1.47968 2.31496 1.82115 1.43307 2.39025 0.881889C2.95936 0.330709 3.75611 -2.10259e-07 4.7805 -2.10259e-07C5.00814 -2.10259e-07 5.23578 -2.10259e-07 5.46343 -2.10259e-07C5.69107 -2.10259e-07 5.91871 0.110236 6.14635 0.110236L5.91871 1.76378C5.80489 1.76378 5.69107 1.76378 5.57725 1.65354C5.46343 1.65354 5.23578 1.65354 5.12196 1.65354C4.66667 1.65354 4.32522 1.76378 4.09757 2.09449C3.86993 2.31496 3.75611 2.7559 3.75611 3.19685V4.29921H5.69107V5.84252H3.75611V13.6693H1.47968V13.7795V13.7795Z" transform="translate(60.252 8)" fill="white"/>
<path d="M3.75611 4.20518e-07V2.31496H5.46343V3.85827H3.75611V9.03937C3.75611 9.48031 3.86993 9.70078 3.98375 9.92126C4.21139 10.0315 4.43903 10.1417 4.66668 10.1417C4.7805 10.1417 4.89432 10.1417 5.00814 10.1417C5.12196 10.1417 5.23578 10.1417 5.3496 10.0315L5.57725 11.5748C5.34961 11.685 5.12197 11.7953 4.89432 11.7953C4.66668 11.7953 4.32521 11.9055 4.09757 11.9055C3.30082 11.9055 2.61789 11.685 2.16261 11.2441C1.70732 10.8031 1.47968 10.0315 1.47968 9.1496V3.9685H0V2.4252H1.47968V0.110236H3.75611V4.20518e-07Z" transform="translate(67.4229 10.0945)" fill="white"/>
</svg>
