<svg width="26" height="30" viewBox="0 0 26 30" fill="none" xmlns="http://www.w3.org/2000/svg">
<path d="M6.53762 7.5L0 3.75L6.53762 0V7.5Z" transform="translate(0 11.25)" fill="#0091EA"/>
<path d="M6.46247 7.5L-1.43328e-07 3.75L6.46247 0V7.5Z" transform="translate(6.5376 7.5)" fill="#0091EA"/>
<path d="M6.53762 7.5L-5.73311e-07 3.75L6.53762 0V7.5Z" transform="translate(13 3.75)" fill="#0091EA"/>
<path d="M6.46247 7.5L0 3.75L6.46247 0V7.5Z" transform="translate(19.5376 7.5)" fill="#0091EA"/>
<path d="M6.53762 7.5L0 3.75L6.53762 0V7.5Z" transform="translate(0 3.75)" fill="#0091EA"/>
<path d="M6.46247 7.5L-1.43328e-07 3.75L6.46247 0V7.5Z" transform="translate(6.5376)" fill="#0091EA"/>
<path d="M6.46247 7.5L-1.43328e-07 3.75L6.46247 0V7.5Z" transform="translate(6.5376 15)" fill="#0091EA"/>
<path d="M6.53762 7.5L0 3.75L6.53762 0V7.5Z" transform="translate(0 18.75)" fill="#0091EA"/>
<path d="M6.46247 7.5L-1.43328e-07 3.75L6.46247 0V7.5Z" transform="translate(6.5376 22.5)" fill="#0091EA"/>
<path d="M6.53762 7.5L-5.73311e-07 3.75L6.53762 0V7.5Z" transform="translate(13 18.75)" fill="#0091EA"/>
<path d="M6.46247 7.5L0 3.75L6.46247 0V7.5Z" transform="translate(19.5376 15)" fill="#0091EA"/>
<path d="M6.53762 7.5L-5.73311e-07 3.75L6.53762 0V7.5Z" transform="translate(13 11.25)" fill="#0091EA"/>
<path d="M6.53762 3.75L4.35841 5.025L0 7.5V0L2.17921 1.275L6.53762 3.75Z" transform="translate(0 7.5)" fill="#0091EA"/>
<path d="M-1.43328e-07 0V7.5L6.46247 3.75L-1.43328e-07 0Z" transform="translate(6.5376 3.75)" fill="#0091EA"/>
<path d="M-5.73311e-07 0V7.5L6.53762 3.75L-5.73311e-07 0Z" transform="translate(13)" fill="#0091EA"/>
<path d="M-1.43328e-07 0V7.5L6.46247 3.75L-1.43328e-07 0Z" transform="translate(6.5376 18.75)" fill="#0091EA"/>
<path d="M-5.73311e-07 0V7.5L6.53762 3.75L-5.73311e-07 0Z" transform="translate(13 22.5)" fill="#0091EA"/>
<path d="M-5.73311e-07 0V7.5L6.53762 3.75L-5.73311e-07 0Z" transform="translate(13 15)" fill="#0091EA"/>
<path d="M0 0V7.5L6.46247 3.75L0 0Z" transform="translate(19.5376 11.25)" fill="#0091EA"/>
<path d="M-1.43328e-07 0V7.5L6.46247 3.75L-1.43328e-07 0Z" transform="translate(6.5376 11.25)" fill="#0091EA"/>
<path d="M6.53762 3.75L0 7.5V0L6.53762 3.75Z" transform="translate(0 15)" fill="#0091EA"/>
<path d="M-5.73311e-07 0V7.5L6.53762 3.75L-5.73311e-07 0Z" transform="translate(13 7.5)" fill="#0091EA"/>
<path d="M0 0V7.5L6.46247 3.75L0 0Z" transform="translate(19.5376 3.75)" fill="#0091EA"/>
<path d="M0 0V7.5L6.46247 3.75L0 0Z" transform="translate(19.5376 18.75)" fill="#0091EA"/>
<path d="M13.0001 3.75L10.8209 -3.57628e-08L7.16639e-08 6.3L10.8209 25.05L21.7169 18.75L19.5377 15L13.0001 18.75L10.8209 15L17.3585 11.25L15.1793 7.5L8.64168 11.25L6.46247 7.5L13.0001 3.75Z" transform="translate(2.1792 2.475)" fill="white"/>
</svg>
