<?xml version="1.0" encoding="UTF-8" standalone="no"?>
<svg
   xmlns:osb="http://www.openswatchbook.org/uri/2009/osb"
   xmlns:dc="http://purl.org/dc/elements/1.1/"
   xmlns:cc="http://creativecommons.org/ns#"
   xmlns:rdf="http://www.w3.org/1999/02/22-rdf-syntax-ns#"
   xmlns:svg="http://www.w3.org/2000/svg"
   xmlns="http://www.w3.org/2000/svg"
   xmlns:sodipodi="http://sodipodi.sourceforge.net/DTD/sodipodi-0.dtd"
   xmlns:inkscape="http://www.inkscape.org/namespaces/inkscape"
   id="svg8"
   version="1.1"
   viewBox="0 0 33.072918 33.072918"
   height="125"
   width="125"
   sodipodi:docname="Logo.svg"
   inkscape:version="0.92.4 (5da689c313, 2019-01-14)">
  <sodipodi:namedview
     pagecolor="#ffffff"
     bordercolor="#666666"
     borderopacity="1"
     objecttolerance="10"
     gridtolerance="10"
     guidetolerance="10"
     inkscape:pageopacity="0"
     inkscape:pageshadow="2"
     inkscape:window-width="1360"
     inkscape:window-height="715"
     id="namedview25"
     showgrid="false"
     inkscape:zoom="2.8544762"
     inkscape:cx="76.726522"
     inkscape:cy="92.119335"
     inkscape:window-x="-8"
     inkscape:window-y="-8"
     inkscape:window-maximized="1"
     inkscape:current-layer="svg8"
     units="px" />
  <defs
     id="defs2">
    <linearGradient
       osb:paint="solid"
       id="linearGradient5519">
      <stop
         id="stop5517"
         offset="0"
         style="stop-color:#00efef;stop-opacity:1;" />
    </linearGradient>
  </defs>
  <metadata
     id="metadata5">
    <rdf:RDF>
      <cc:Work
         rdf:about="">
        <dc:format>image/svg+xml</dc:format>
        <dc:type
           rdf:resource="http://purl.org/dc/dcmitype/StillImage" />
        <dc:title></dc:title>
      </cc:Work>
    </rdf:RDF>
  </metadata>
  <rect
     y="-3.9406823e-06"
     x="0"
     height="33.072918"
     width="33.072918"
     id="rect4704"
     style="fill:#04a0ff;fill-opacity:0.99494952;stroke-width:0.05014211" />
  <g
     id="g5584"
     transform="matrix(0.29702852,0,0,0.29702852,-97.841099,-43.446638)"
     style="fill:#ffffff">
    <g
       id="g5569"
       style="fill:#ffffff">
      <g
         id="g863"
         transform="matrix(0.61744119,0,0,0.61744119,329.3594,135.20602)"
         style="fill:#ffffff">
        <g
           style="fill:#ffffff"
           id="g5562"
           transform="translate(-5.468453e-6,-1.2487053e-6)">
          <g
             style="fill:#ffffff"
             id="g5554">
            <path
               inkscape:connector-curvature="0"
               style="fill:#ffffff;fill-opacity:1;stroke-width:0.91608864"
               d="m 7.2786187,57.287541 12.0918903,17.06562 h 42.42623 v -17.06562 z"
               id="rect4048-5-5" />
            <path
               inkscape:connector-curvature="0"
               style="fill:#ffffff;fill-opacity:1;stroke-width:0.3128334"
               d="m 61.29858,57.293185 a 34.235061,33.342842 0 0 0 -0.03101,0.0016 v 17.058906 a 18.098249,16.945886 0 0 1 0.01344,-5.3e-4 18.098249,16.945886 0 0 1 18.098119,16.94573 18.098249,16.945886 0 0 1 -18.098119,16.945739 18.098249,16.945886 0 0 1 -0.01344,-5.3e-4 v 15.7334 a 34.235061,33.342842 0 0 0 0.03101,10e-4 A 34.235061,33.342842 0 0 0 95.533699,90.635881 34.235061,33.342842 0 0 0 61.29858,57.293219 Z"
               id="path4355" />
          </g>
          <g
             transform="translate(103.46758,-31.749999)"
             id="g4603"
             style="fill:#ffffff;fill-opacity:1">
            <path
               inkscape:connector-curvature="0"
               style="fill:#ffffff;fill-opacity:1;stroke-width:1.20937955"
               d="m -67.477018,139.99356 38.770761,52.23144 15.503445,-10.64845 -30.866331,-41.58299 z"
               id="rect4048-5-0" />
            <rect
               style="fill:#ffffff;fill-opacity:1;stroke-width:0.26907885"
               id="rect4048-5-00"
               width="12.700018"
               height="6.350008"
               x="-48.612427"
               y="139.99382" />
          </g>
        </g>
        <path
           inkscape:connector-curvature="0"
           style="fill:#ffffff;fill-opacity:1;stroke-width:1.21855903"
           d="m 86.895472,55.7 v 0.113688 A 52.615446,67.733298 0 0 1 101.6,74.75 h 71.58633 V 55.7 Z"
           id="rect4048-4" />
        <rect
           y="141.42503"
           x="74.761322"
           height="19.049999"
           width="98.425003"
           id="rect4048-5"
           style="fill:#ffffff;fill-opacity:1;stroke-width:1.29744959" />
        <g
           transform="translate(103.46758,-31.749999)"
           style="fill:#ffffff;fill-opacity:1"
           id="g4599">
          <path
             inkscape:connector-curvature="0"
             style="fill:#ffffff;fill-opacity:1;stroke-width:1.12114871"
             d="M 2.401406,128.72504 A 30.427083,36.512417 0 0 1 -6.426997,147.775 H 44.45 l 8.686808,-15.98163 0.706934,-3.06833 z"
             id="rect4048-4-2" />
          <path
             inkscape:connector-curvature="0"
             style="fill:#ffffff;fill-opacity:1;stroke-width:0.71667868"
             d="m 25.266675,128.72496 v 19.05 h 19.505269 l 10.435021,-19.05 z"
             id="rect4048-5-3" />
        </g>
      </g>
    </g>
  </g>
</svg>
